<?xml version="1.0" encoding="UTF-8" standalone="no"?>
<svg
   xmlns:dc="http://purl.org/dc/elements/1.1/"
   xmlns:cc="http://creativecommons.org/ns#"
   xmlns:rdf="http://www.w3.org/1999/02/22-rdf-syntax-ns#"
   xmlns:svg="http://www.w3.org/2000/svg"
   xmlns="http://www.w3.org/2000/svg"
   xmlns:sodipodi="http://sodipodi.sourceforge.net/DTD/sodipodi-0.dtd"
   xmlns:inkscape="http://www.inkscape.org/namespaces/inkscape"
   aria-hidden="true"
   focusable="false"
   data-prefix="fab"
   data-icon="xing"
   class="svg-inline--fa fa-xing fa-w-12"
   role="img"
   viewBox="0 0 384 512"
   version="1.1"
   id="svg4"
   sodipodi:docname="xing-logo.svg"
   inkscape:version="0.92.3 (2405546, 2018-03-11)">
  <metadata
     id="metadata10">
    <rdf:RDF>
      <cc:Work
         rdf:about="">
        <dc:format>image/svg+xml</dc:format>
        <dc:type
           rdf:resource="http://purl.org/dc/dcmitype/StillImage" />
      </cc:Work>
    </rdf:RDF>
  </metadata>
  <defs
     id="defs8" />
  <sodipodi:namedview
     pagecolor="#ffffff"
     bordercolor="#666666"
     borderopacity="1"
     objecttolerance="10"
     gridtolerance="10"
     guidetolerance="10"
     inkscape:pageopacity="0"
     inkscape:pageshadow="2"
     inkscape:window-width="640"
     inkscape:window-height="480"
     id="namedview6"
     showgrid="false"
     inkscape:zoom="1.7011719"
     inkscape:cx="90.305396"
     inkscape:cy="265.99311"
     inkscape:current-layer="svg4" />
  <path
     d="m 162.7,210 c -1.8,3.3 -25.2,44.4 -70.1,123.5 C 87.7,341.8 81.8,346 74.9,346 H 9.8 c -7.7,0 -12.1,-7.5 -8.5,-14.4 l 69,-121.3 c 0.2,0 0.2,-0.1 0,-0.3 L 26.4,134.4 c -4.3,-7.8 0.3,-14.1 8.5,-14.1 H 100 c 7.3,0 13.3,4.1 18,12.2 z"
     id="path14"
     style="fill:#ffffff" />
  <path
     d="m 382.6,46.1 -144,253 v 0.3 L 330.2,466 c 3.9,7.1 0.2,14.1 -8.5,14.1 h -65.2 c -7.6,0 -13.6,-4 -18,-12.2 L 146.1,299.4 c 3.3,-5.8 51.5,-90.8 144.8,-255.2 4.6,-8.1 10.4,-12.2 17.5,-12.2 h 65.7 c 8,0 12.3,6.7 8.5,14.1 z"
     id="path2"
     style="fill:#ffffff" />
</svg>
